EMG
version=1
nRows=17
nColumns=17
inDegrees=no
endheader
time	_right_gast_med	_right_glut_max	_left_gast_med	_left_glut_max	_right_glut_med	_right_bic_fem	_right_rect_fem	_right_vast_lat	_right_vast_med	_right_tens_fasc_lat	_left_glut_med	_left_bic_fem	_left_rect_fem	_left_vast_lat	_left_vast_med	_left_tens_fasc_lat
      0.71000000	     -0.24275948	     -0.00787276	      0.02172829	      0.01969291	      0.02333781	      0.01693866	      0.00674415	      0.01034090	      0.02642479	      0.01747033	      0.01725443	      0.01975325	      0.00738529	      0.05206238	      0.10531469	     -0.02060631
      0.72000000	     -0.74898922	     -0.01826084	      0.00955871	      0.03408932	      0.00647879	      0.00310065	      0.00213099	      0.00750108	      0.02770495	      0.01216886	      0.00095062	      0.03582223	      0.00082242	      0.06362381	      0.00674488	     -0.00152356
      0.73000000	     -1.40985417	     -0.02326737	     -0.01377856	      0.01453056	      0.00382895	      0.00100034	     -0.00534824	      0.00636704	      0.02121729	      0.01200109	     -0.00784476	      0.01227198	     -0.01980827	      0.04352827	      0.00613555	      0.02052540
      0.74000000	     -0.46394610	     -0.02256702	     -0.02191541	     -0.01236496	      0.01335766	      0.00390514	     -0.00159532	      0.00270272	      0.01893230	      0.01233103	     -0.00348630	     -0.02557284	     -0.01629601	      0.00061645	      0.05197700	      0.02036919
      0.75000000	      1.72212660	     -0.01498236	      0.00446896	     -0.00533022	      0.01861519	      0.00600037	      0.00599933	     -0.00523159	      0.03424849	      0.00878250	      0.01284876	     -0.03556873	      0.01368524	     -0.02987296	      0.05762890	      0.01208313
      0.76000000	      1.98511648	      0.00179284	      0.02687481	      0.02743614	      0.01943836	      0.01156629	      0.00618693	     -0.00544659	      0.07023411	      0.00776166	      0.03565200	     -0.01573280	      0.02738930	     -0.03095102	      0.02294078	      0.00514199
      0.77000000	     -0.29631484	      0.01995284	      0.01787101	      0.02842196	      0.01806074	      0.01228615	      0.01114671	      0.00280167	      0.10945172	      0.00435757	      0.04641249	     -0.00852625	      0.03452363	     -0.02778495	     -0.05732715	     -0.00317429
      0.78000000	     -1.23590302	      0.03704100	      0.00738469	     -0.00307129	      0.01876276	      0.00148400	      0.01972088	      0.01265633	      0.11826798	     -0.00198952	      0.04257550	     -0.02163670	      0.03611535	     -0.02307631	     -0.09977066	      0.00810059
      0.79000000	      0.18740848	      0.05668718	      0.02311363	     -0.01271377	      0.02154435	     -0.01286023	      0.01990769	      0.01988626	      0.08648398	     -0.00376834	      0.02850378	     -0.02435055	      0.01961219	      0.00141734	     -0.03842739	      0.03549450
      0.80000000	      0.73767483	      0.05853100	      0.04378204	     -0.00392789	      0.01566703	     -0.01975258	      0.01089173	      0.01317106	      0.05166354	      0.00170428	      0.01784402	     -0.01636328	      0.00362100	      0.03168860	      0.07628743	      0.04577687
      0.81000000	     -0.85948157	      0.01203168	      0.03250152	     -0.00135470	      0.00382742	     -0.01602360	      0.00167278	     -0.00304661	      0.03841394	      0.01043075	      0.01683603	      0.00347442	      0.00025590	      0.05375249	      0.10390266	      0.03387087
      0.82000000	     -1.79491723	     -0.07051467	     -0.00383105	      0.00432663	     -0.00443777	     -0.00444658	     -0.00007767	      0.00251239	      0.03355101	      0.01689604	      0.00339476	      0.04098558	     -0.01131041	      0.04392595	     -0.03446747	      0.02055856
      0.83000000	     -0.66296333	     -0.15261927	     -0.02292761	      0.00996152	     -0.01258248	      0.00937514	      0.00759988	      0.02201024	      0.02579452	      0.01199225	     -0.01410373	      0.06828375	     -0.01664920	      0.03181570	     -0.14678398	     -0.00034922
      0.84000000	      0.35915610	     -0.16798320	     -0.01162065	      0.00664475	     -0.01689825	      0.01160719	      0.01591060	      0.01194714	      0.01923520	      0.00188737	     -0.02701316	      0.06172586	      0.00994140	      0.02488126	     -0.05974266	     -0.01851621
      0.85000000	      0.64980626	     -0.08865510	      0.00650098	      0.02134114	     -0.00156299	      0.00089254	      0.02135016	     -0.01080109	      0.01653966	      0.00113388	     -0.02766287	      0.03009116	      0.03759418	      0.00890587	      0.07997724	     -0.01049074
      0.86000000	      0.67710781	     -0.03068897	      0.02251929	      0.05082410	      0.02717490	     -0.00574360	      0.02757649	     -0.01251162	      0.01547997	      0.00651381	     -0.01057457	      0.00663034	      0.02865832	     -0.01197214	      0.10764473	      0.02126991
      0.87000000	      0.81039149	     -0.04696440	      0.04118512	      0.05678802	      0.03708366	      0.00282996	      0.02814597	      0.00230295	      0.01524768	      0.00648168	     -0.00175934	      0.00967055	      0.01146982	     -0.02389852	      0.04165251	      0.04867768
